<svg xmlns="http://www.w3.org/2000/svg" xmlns:xlink="http://www.w3.org/1999/xlink" width="1500" zoomAndPan="magnify" viewBox="0 0 1125 374.999991" height="500" preserveAspectRatio="xMidYMid meet" version="1.0"><defs><g/><clipPath id="5033f63a7e"><rect x="0" width="1122" y="0" height="375"/></clipPath></defs><g transform="matrix(1, 0, 0, 1, 0, 0)"><g clip-path="url(#5033f63a7e)"><g fill="#ffffff" fill-opacity="1"><g transform="translate(-9.381133, 284.097667)"><g><path d="M 44.046875 0 C 37.390625 0 31.8125 -2.203125 27.3125 -6.609375 C 22.8125 -11.015625 20.5625 -16.15625 20.5625 -22.03125 L 20.5625 -183.5625 C 20.5625 -189.425781 22.8125 -194.5625 27.3125 -198.96875 C 31.8125 -203.375 37.390625 -205.578125 44.046875 -205.578125 L 99.859375 -205.578125 C 112.972656 -205.578125 125.0625 -203.421875 136.125 -199.109375 C 147.1875 -194.804688 156.632812 -188.835938 164.46875 -181.203125 C 172.300781 -173.566406 178.414062 -164.5625 182.8125 -154.1875 C 187.21875 -143.8125 189.421875 -132.550781 189.421875 -120.40625 L 189.421875 -85.171875 C 189.421875 -73.023438 187.21875 -61.765625 182.8125 -51.390625 C 178.414062 -41.015625 172.300781 -32.007812 164.46875 -24.375 C 156.632812 -16.738281 147.1875 -10.765625 136.125 -6.453125 C 125.0625 -2.148438 112.972656 0 99.859375 0 Z M 99.859375 -41.109375 C 112.390625 -41.109375 122.375 -44.925781 129.8125 -52.5625 C 137.25 -60.207031 140.96875 -71.078125 140.96875 -85.171875 L 140.96875 -120.40625 C 140.96875 -134.507812 137.25 -145.378906 129.8125 -153.015625 C 122.375 -160.648438 112.390625 -164.46875 99.859375 -164.46875 L 67.546875 -164.46875 L 67.546875 -41.109375 Z M 99.859375 -41.109375 "/></g></g></g><g fill="#ffffff" fill-opacity="1"><g transform="translate(183.282275, 284.097667)"><g><path d="M 83.703125 4.40625 C 73.328125 4.40625 63.832031 2.691406 55.21875 -0.734375 C 46.601562 -4.160156 39.207031 -8.757812 33.03125 -14.53125 C 26.863281 -20.3125 22.019531 -27.019531 18.5 -34.65625 C 14.976562 -42.289062 13.21875 -50.316406 13.21875 -58.734375 L 13.21875 -88.109375 C 13.21875 -96.523438 14.929688 -104.550781 18.359375 -112.1875 C 21.785156 -119.820312 26.582031 -126.523438 32.75 -132.296875 C 38.914062 -138.078125 46.207031 -142.679688 54.625 -146.109375 C 63.039062 -149.535156 72.242188 -151.25 82.234375 -151.25 C 92.210938 -151.25 101.410156 -149.535156 109.828125 -146.109375 C 118.253906 -142.679688 125.550781 -138.078125 131.71875 -132.296875 C 137.882812 -126.523438 142.679688 -119.820312 146.109375 -112.1875 C 149.535156 -104.550781 151.25 -96.523438 151.25 -88.109375 L 151.25 -77.828125 C 151.25 -72.734375 149.289062 -68.273438 145.375 -64.453125 C 141.457031 -60.640625 136.5625 -58.734375 130.6875 -58.734375 L 54.328125 -58.734375 C 54.328125 -50.515625 57.019531 -43.8125 62.40625 -38.625 C 67.789062 -33.4375 74.890625 -30.84375 83.703125 -30.84375 C 90.359375 -30.84375 95.691406 -31.523438 99.703125 -32.890625 C 103.722656 -34.265625 107.195312 -35.78125 110.125 -37.4375 C 113.0625 -39.101562 115.800781 -40.617188 118.34375 -41.984375 C 120.894531 -43.359375 124.03125 -44.046875 127.75 -44.046875 C 132.84375 -44.046875 137.050781 -42.476562 140.375 -39.34375 C 143.707031 -36.21875 145.375 -32.40625 145.375 -27.90625 C 145.375 -24.570312 144.148438 -21.046875 141.703125 -17.328125 C 139.253906 -13.609375 135.535156 -10.132812 130.546875 -6.90625 C 125.554688 -3.675781 119.144531 -0.984375 111.3125 1.171875 C 103.476562 3.328125 94.273438 4.40625 83.703125 4.40625 Z M 110.140625 -89.578125 C 110.140625 -97.015625 107.539062 -103.273438 102.34375 -108.359375 C 97.15625 -113.453125 90.453125 -116 82.234375 -116 C 74.003906 -116 67.296875 -113.453125 62.109375 -108.359375 C 56.921875 -103.273438 54.328125 -97.015625 54.328125 -89.578125 Z M 110.140625 -89.578125 "/></g></g></g><g fill="#ffffff" fill-opacity="1"><g transform="translate(331.891543, 284.097667)"><g><path d="M 77.828125 4.40625 C 69.609375 4.40625 63.195312 2.5 58.59375 -1.3125 C 53.988281 -5.132812 50.609375 -9.59375 48.453125 -14.6875 L 8.8125 -111.59375 C 8.03125 -113.550781 7.25 -115.609375 6.46875 -117.765625 C 5.875 -119.523438 5.378906 -121.382812 4.984375 -123.34375 C 4.597656 -125.300781 4.40625 -127.257812 4.40625 -129.21875 C 4.40625 -134.3125 6.363281 -138.765625 10.28125 -142.578125 C 14.195312 -146.398438 19.09375 -148.3125 24.96875 -148.3125 C 30.84375 -148.3125 35.539062 -146.644531 39.0625 -143.3125 C 42.582031 -139.988281 45.222656 -135.78125 46.984375 -130.6875 L 76.359375 -51.390625 L 79.296875 -51.390625 L 108.671875 -130.6875 C 110.429688 -135.78125 113.070312 -139.988281 116.59375 -143.3125 C 120.113281 -146.644531 124.8125 -148.3125 130.6875 -148.3125 C 136.5625 -148.3125 141.457031 -146.398438 145.375 -142.578125 C 149.289062 -138.765625 151.25 -134.3125 151.25 -129.21875 C 151.25 -127.257812 151.003906 -125.300781 150.515625 -123.34375 C 150.023438 -121.382812 149.488281 -119.523438 148.90625 -117.765625 L 146.84375 -111.59375 L 107.203125 -14.6875 C 105.046875 -9.59375 101.664062 -5.132812 97.0625 -1.3125 C 92.457031 2.5 86.046875 4.40625 77.828125 4.40625 Z M 77.828125 4.40625 "/></g></g></g><g fill="#ffffff" fill-opacity="1"><g transform="translate(473.158434, 284.097667)"><g><path d="M 38.171875 1.46875 C 32.304688 1.46875 27.414062 -0.4375 23.5 -4.25 C 19.582031 -8.070312 17.625 -12.53125 17.625 -17.625 L 17.625 -189.421875 C 17.625 -194.515625 19.582031 -198.96875 23.5 -202.78125 C 27.414062 -206.601562 32.304688 -208.515625 38.171875 -208.515625 C 44.046875 -208.515625 48.941406 -206.601562 52.859375 -202.78125 C 56.773438 -198.96875 58.734375 -194.515625 58.734375 -189.421875 L 58.734375 -17.625 C 58.734375 -12.53125 56.773438 -8.070312 52.859375 -4.25 C 48.941406 -0.4375 44.046875 1.46875 38.171875 1.46875 Z M 38.171875 1.46875 "/></g></g></g><g fill="#ffffff" fill-opacity="1"><g transform="translate(535.127828, 284.097667)"><g><path d="M 83.703125 4.40625 C 73.328125 4.40625 63.832031 2.691406 55.21875 -0.734375 C 46.601562 -4.160156 39.207031 -8.757812 33.03125 -14.53125 C 26.863281 -20.3125 22.019531 -27.019531 18.5 -34.65625 C 14.976562 -42.289062 13.21875 -50.316406 13.21875 -58.734375 L 13.21875 -88.109375 C 13.21875 -96.523438 14.976562 -104.550781 18.5 -112.1875 C 22.019531 -119.820312 26.863281 -126.523438 33.03125 -132.296875 C 39.207031 -138.078125 46.601562 -142.679688 55.21875 -146.109375 C 63.832031 -149.535156 73.328125 -151.25 83.703125 -151.25 C 93.878906 -151.25 103.320312 -149.535156 112.03125 -146.109375 C 120.75 -142.679688 128.191406 -138.078125 134.359375 -132.296875 C 140.523438 -126.523438 145.367188 -119.820312 148.890625 -112.1875 C 152.421875 -104.550781 154.1875 -96.523438 154.1875 -88.109375 L 154.1875 -58.734375 C 154.1875 -50.316406 152.421875 -42.289062 148.890625 -34.65625 C 145.367188 -27.019531 140.523438 -20.3125 134.359375 -14.53125 C 128.191406 -8.757812 120.75 -4.160156 112.03125 -0.734375 C 103.320312 2.691406 93.878906 4.40625 83.703125 4.40625 Z M 83.703125 -30.84375 C 92.515625 -30.84375 99.609375 -33.4375 104.984375 -38.625 C 110.367188 -43.8125 113.0625 -50.515625 113.0625 -58.734375 L 113.0625 -88.109375 C 113.0625 -96.328125 110.367188 -103.03125 104.984375 -108.21875 C 99.609375 -113.40625 92.515625 -116 83.703125 -116 C 74.890625 -116 67.789062 -113.40625 62.40625 -108.21875 C 57.019531 -103.03125 54.328125 -96.328125 54.328125 -88.109375 L 54.328125 -58.734375 C 54.328125 -50.515625 57.019531 -43.8125 62.40625 -38.625 C 67.789062 -33.4375 74.890625 -30.84375 83.703125 -30.84375 Z M 83.703125 -30.84375 "/></g></g></g><g fill="#ffffff" fill-opacity="1"><g transform="translate(688.142472, 284.097667)"><g><path d="M 38.171875 64.609375 C 32.304688 64.609375 27.414062 62.695312 23.5 58.875 C 19.582031 55.0625 17.625 50.609375 17.625 45.515625 L 17.625 -129.21875 C 17.625 -134.3125 19.582031 -138.765625 23.5 -142.578125 C 27.414062 -146.398438 32.304688 -148.3125 38.171875 -148.3125 C 41.898438 -148.3125 45.082031 -147.523438 47.71875 -145.953125 C 50.363281 -144.390625 52.46875 -142.726562 54.03125 -140.96875 C 55.988281 -138.8125 57.554688 -136.363281 58.734375 -133.625 L 61.671875 -133.625 C 64.222656 -136.957031 67.257812 -139.894531 70.78125 -142.4375 C 73.914062 -144.59375 77.734375 -146.597656 82.234375 -148.453125 C 86.734375 -150.316406 92.117188 -151.25 98.390625 -151.25 C 106.023438 -151.25 113.316406 -149.726562 120.265625 -146.6875 C 127.210938 -143.65625 133.328125 -139.398438 138.609375 -133.921875 C 143.898438 -128.441406 148.0625 -121.832031 151.09375 -114.09375 C 154.132812 -106.363281 155.65625 -97.703125 155.65625 -88.109375 L 155.65625 -58.734375 C 155.65625 -49.140625 154.132812 -40.472656 151.09375 -32.734375 C 148.0625 -25.003906 143.898438 -18.398438 138.609375 -12.921875 C 133.328125 -7.441406 127.210938 -3.179688 120.265625 -0.140625 C 113.316406 2.890625 106.023438 4.40625 98.390625 4.40625 C 92.117188 4.40625 86.734375 3.472656 82.234375 1.609375 C 77.734375 -0.242188 73.914062 -2.25 70.78125 -4.40625 C 67.257812 -6.945312 64.222656 -9.882812 61.671875 -13.21875 L 58.734375 -13.21875 L 58.734375 45.515625 C 58.734375 50.609375 56.773438 55.0625 52.859375 58.875 C 48.941406 62.695312 44.046875 64.609375 38.171875 64.609375 Z M 86.640625 -30.84375 C 94.859375 -30.84375 101.5625 -33.4375 106.75 -38.625 C 111.9375 -43.8125 114.53125 -50.515625 114.53125 -58.734375 L 114.53125 -88.109375 C 114.53125 -96.328125 111.9375 -103.03125 106.75 -108.21875 C 101.5625 -113.40625 94.859375 -116 86.640625 -116 C 78.410156 -116 71.703125 -113.40625 66.515625 -108.21875 C 61.328125 -103.03125 58.734375 -96.328125 58.734375 -88.109375 L 58.734375 -58.734375 C 58.734375 -50.515625 61.328125 -43.8125 66.515625 -38.625 C 71.703125 -33.4375 78.410156 -30.84375 86.640625 -30.84375 Z M 86.640625 -30.84375 "/></g></g></g><g fill="#2c7aec" fill-opacity="1"><g transform="translate(842.627547, 284.097667)"><g><path d="M 45.515625 2.9375 C 38.859375 2.9375 33.28125 0.734375 28.78125 -3.671875 C 24.28125 -8.078125 22.03125 -13.21875 22.03125 -19.09375 L 22.03125 -186.484375 C 22.03125 -192.359375 24.28125 -197.5 28.78125 -201.90625 C 33.28125 -206.3125 38.859375 -208.515625 45.515625 -208.515625 C 52.171875 -208.515625 57.75 -206.3125 62.25 -201.90625 C 66.757812 -197.5 69.015625 -192.359375 69.015625 -186.484375 L 69.015625 -19.09375 C 69.015625 -13.21875 66.757812 -8.078125 62.25 -3.671875 C 57.75 0.734375 52.171875 2.9375 45.515625 2.9375 Z M 45.515625 2.9375 "/></g></g></g><g fill="#2c7aec" fill-opacity="1"><g transform="translate(919.28168, 284.097667)"><g><path d="M 27.90625 2.9375 C 21.25 2.9375 15.664062 0.734375 11.15625 -3.671875 C 6.65625 -8.078125 4.40625 -13.21875 4.40625 -19.09375 C 4.40625 -20.851562 4.695312 -23.003906 5.28125 -25.546875 C 5.875 -28.097656 6.5625 -30.546875 7.34375 -32.890625 C 8.125 -35.628906 9.101562 -38.367188 10.28125 -41.109375 L 66.078125 -185.015625 C 69.210938 -193.242188 73.472656 -199.707031 78.859375 -204.40625 C 84.242188 -209.101562 91.734375 -211.453125 101.328125 -211.453125 C 110.921875 -211.453125 118.40625 -209.101562 123.78125 -204.40625 C 129.164062 -199.707031 133.425781 -193.242188 136.5625 -185.015625 L 192.359375 -41.109375 C 193.535156 -38.367188 194.515625 -35.628906 195.296875 -32.890625 C 196.085938 -30.546875 196.773438 -28.097656 197.359375 -25.546875 C 197.941406 -23.003906 198.234375 -20.851562 198.234375 -19.09375 C 198.234375 -13.21875 195.984375 -8.078125 191.484375 -3.671875 C 186.984375 0.734375 181.40625 2.9375 174.75 2.9375 C 168.09375 2.9375 162.851562 1.128906 159.03125 -2.484375 C 155.21875 -6.109375 152.132812 -11.15625 149.78125 -17.625 L 139.5 -45.515625 L 63.140625 -45.515625 L 52.859375 -17.625 C 50.515625 -11.15625 47.429688 -6.109375 43.609375 -2.484375 C 39.796875 1.128906 34.5625 2.9375 27.90625 2.9375 Z M 126.28125 -86.640625 L 102.796875 -155.65625 L 99.859375 -155.65625 L 76.359375 -86.640625 Z M 126.28125 -86.640625 "/></g></g></g></g></g></svg>